<?xml version="1.0" standalone="no"?>
<!DOCTYPE svg PUBLIC "-//W3C//DTD SVG 20010904//EN"
 "http://www.w3.org/TR/2001/REC-SVG-20010904/DTD/svg10.dtd">
<svg version="1.0" xmlns="http://www.w3.org/2000/svg"
 width="546.000000pt" height="557.000000pt" viewBox="0 0 546.000000 557.000000"
 preserveAspectRatio="xMidYMid meet">
<metadata>
Created by potrace 1.16, written by Peter Selinger 2001-2019
</metadata>
<g transform="translate(0.000000,557.000000) scale(0.100000,-0.100000)"
fill="#4f46e5" stroke="none">
<path d="M1700 5199 c-394 -46 -770 -209 -1015 -441 -203 -192 -330 -423 -401
-733 -29 -122 -26 -430 4 -582 48 -242 119 -445 243 -693 338 -679 921 -1290
1634 -1712 158 -93 285 -160 285 -150 0 4 -59 53 -132 107 -563 422 -1015 909
-1293 1394 l-49 84 145 139 c79 76 156 148 172 159 l27 20 0 -360 0 -361 190
0 190 0 0 544 0 543 510 482 510 482 899 -843 900 -842 -70 -137 c-267 -527
-727 -1057 -1338 -1542 -74 -59 -151 -118 -172 -133 l-37 -26 -119 75 c-65 42
-176 102 -246 136 -385 182 -800 460 -1132 759 -102 92 -140 114 -69 41 168
-176 454 -410 699 -574 257 -172 473 -286 823 -435 13 -6 20 -14 17 -20 -6
-10 -381 -262 -475 -320 -30 -18 -50 -35 -44 -37 16 -5 264 102 442 191 354
177 666 383 987 651 148 123 430 402 555 550 525 617 838 1293 875 1890 21
340 -103 764 -300 1027 -255 340 -678 574 -1180 653 -144 23 -437 30 -592 15
-122 -12 -341 -52 -364 -66 -7 -4 3 -15 22 -27 19 -11 75 -46 124 -78 75 -48
99 -59 133 -59 145 0 429 -52 602 -109 285 -95 496 -226 690 -427 195 -202
321 -442 377 -721 34 -169 19 -615 -25 -734 -6 -15 -63 33 -310 258 l-302 276
0 288 0 289 -190 0 -189 0 -3 -107 -3 -108 -420 394 c-460 431 -473 441 -582
441 -107 0 -135 -21 -593 -448 l-410 -383 0 106 0 105 -190 0 -190 0 0 -283 0
-282 -277 -258 c-152 -142 -279 -254 -283 -250 -9 10 -35 119 -56 233 -24 130
-29 404 -10 520 86 528 445 932 990 1114 402 135 900 141 1288 17 48 -16 88
-26 88 -22 0 12 -123 88 -229 141 -178 89 -410 154 -636 180 -106 12 -388 11
-495 -1z"/>
<path d="M2310 2675 l0 -185 185 0 185 0 0 185 0 185 -185 0 -185 0 0 -185z"/>
<path d="M2760 2675 l0 -185 180 0 180 0 0 185 0 185 -180 0 -180 0 0 -185z"/>
<path d="M2310 2255 l0 -185 185 0 185 0 0 185 0 185 -185 0 -185 0 0 -185z"/>
<path d="M2760 2255 l0 -185 180 0 180 0 0 185 0 185 -180 0 -180 0 0 -185z"/>
</g>
</svg>
